<svg width="522" height="522" viewBox="0 0 522 522" fill="none" xmlns="http://www.w3.org/2000/svg">
<path d="M65.2111 88.4089C91.9515 58.0743 125.375 34.368 162.844 19.1603C200.314 3.95249 240.804 -2.34081 281.122 0.776834L278.92 29.2554C243.015 26.479 206.955 32.0836 173.586 45.627C140.218 59.1705 110.452 80.2823 86.6381 107.297L65.2111 88.4089Z" fill="#FF5454"/>
<path d="M303.189 518.568C277.6 522.759 251.528 523.114 225.834 519.62L229.682 491.317C252.565 494.428 275.783 494.112 298.572 490.38L303.189 518.568Z" fill="#1CA3FE"/>
<path d="M76.4451 445.555C49.8 418.91 29.2403 386.811 16.1795 351.465C3.11856 316.119 -2.13385 278.364 0.783249 240.795L29.2612 243.006C26.6633 276.464 31.3409 310.087 42.9724 341.564C54.6039 373.042 72.9135 401.628 96.6427 425.357L76.4451 445.555Z" fill="#DDFF41"/>
<path d="M1.22763 235.715C6.39374 182.639 27.694 132.419 62.2619 91.8133L84.0116 110.329C53.2268 146.491 34.2576 191.215 29.6569 238.482L1.22763 235.715Z" fill="#809FF1"/>
<path d="M285.917 1.1921C316.95 4.16835 347.199 12.6804 375.23 26.3248L362.729 52.0075C337.766 39.8563 310.827 32.2758 283.19 29.6253L285.917 1.1921Z" fill="#EA862E"/>
<path d="M521.772 271.917C519.301 330.922 496.893 387.346 458.207 431.969C419.522 476.591 366.846 506.775 308.787 517.588L303.569 489.568C355.288 479.936 402.211 453.048 436.672 413.298C471.133 373.549 491.094 323.287 493.295 270.724L521.772 271.917Z" fill="#F16EC9"/>
<path d="M221.608 519.01C168.362 510.881 118.934 486.476 80.106 449.145L99.9029 428.554C134.482 461.8 178.5 483.534 225.919 490.774L221.608 519.01Z" fill="#C688FF"/>
<path d="M449.432 80.4057C473.148 105.151 491.758 134.325 504.199 166.263C516.64 198.2 522.669 232.275 521.941 266.542L493.384 265.936C494.032 235.419 488.663 205.073 477.584 176.631C466.504 148.188 449.931 122.207 428.81 100.17L449.432 80.4057Z" fill="#C8C8C8"/>
<path d="M379.428 28.4148C403.834 40.8421 426.133 57.0334 445.504 76.3945L425.312 96.5976C408.061 79.3554 388.203 64.936 366.467 53.8687L379.428 28.4148Z" fill="#EABDB4"/>
</svg>
