<svg width="16" height="16" viewBox="0 0 16 16" fill="none" xmlns="http://www.w3.org/2000/svg">
<path d="M15.3337 1.99987C14.6952 2.45019 13.9884 2.79461 13.2403 3.01987C12.8388 2.55821 12.3052 2.231 11.7117 2.08249C11.1181 1.93397 10.4933 1.97133 9.92171 2.1895C9.3501 2.40768 8.85929 2.79614 8.51565 3.30235C8.17201 3.80856 7.99212 4.40809 8.00033 5.01987V5.68653C6.82875 5.71691 5.66784 5.45708 4.621 4.93017C3.57415 4.40325 2.67387 3.62562 2.00033 2.66653C2.00033 2.66653 -0.666341 8.66653 5.33366 11.3332C3.96068 12.2652 2.3251 12.7325 0.666992 12.6665C6.66699 15.9999 14.0003 12.6665 14.0003 4.99987C13.9997 4.81417 13.9819 4.62893 13.947 4.44653C14.6274 3.77553 15.1075 2.92834 15.3337 1.99987Z" stroke="url(#paint0_linear_455_481)" stroke-linecap="round" stroke-linejoin="round"/>
<defs>
<linearGradient id="paint0_linear_455_481" x1="-13.1483" y1="-43.5389" x2="25.9515" y2="-41.0067" gradientUnits="userSpaceOnUse">
<stop stop-color="#E7EDF9"/>
<stop offset="0.908077" stop-color="#4987FF"/>
</linearGradient>
</defs>
</svg>
